<svg id="Laag_1" data-name="Laag 1" xmlns="http://www.w3.org/2000/svg" viewBox="0 0 182.86 314.6"><defs><style>.cls-1{fill:#e9856e;}.cls-2{fill:#32435a;}</style></defs><title>Team_Logo</title><path class="cls-1" d="M90,3c-3.1,1.8-8.3,4-9.6,4a13,13,0,0,0-4.1,1.4c-6.3,3.3-13.5,5.7-15.2,5.1S46,22.1,46,24a4.34,4.34,0,0,1-1.3,2.2c-2.5,2.6-7.7,14.5-9.3,21.4-2.8,12-.4,35.3,4.7,46.2,3.7,7.7,11.4,17.1,16.2,19.6,3.2,1.8,4,1.8,7.6.6,3.8-1.2,11.1-7.3,11.1-9.2,0-1.2-2.8-4-6.6-6.6a26.7,26.7,0,0,1-6-6.4c-1.6-2.4-4.3-6.2-6-8.5-5.7-7.5-6.7-11.8-6.2-25.1.4-9,1.1-13.2,3-18.3,3.6-9.8,13-20.9,20.7-24.5C77.6,13.7,93,3.2,93,2.4,93,1.8,91.7,2,90,3Z" transform="translate(-0.96 -2.06)"/><path class="cls-1" d="M95.5,34.4c3.9,1.9,10,4.8,13.7,6.5,7.9,3.7,16.1,11.4,18.8,17.6,2.8,6.6,3.6,17.6,1.6,22.8s-12.7,16-19.3,19.6c-2.6,1.4-4.8,3.1-5,3.7s1.6,2.3,4.1,3.8a19.56,19.56,0,0,0,17,1.2c5.2-2.2,15.1-12.6,16.9-17.7,6.4-18.6,5.7-27.5-3.1-39.1a43.53,43.53,0,0,0-7.5-8.1c-5-3.7-11.8-6.9-13.5-6.2-.8.3-3.7-.2-6.6-1-6.9-2-19.6-5.5-22.1-6.1C89.4,31.2,91.7,32.5,95.5,34.4Z" transform="translate(-0.96 -2.06)"/><path class="cls-1" d="M81,51.9c-8.1,3.5-11,8-11,17.5.1,10.5,5.9,19.3,10.9,16.6,2.2-1.1,2.9-4,1.1-4-.6,0-2.4-2.1-4.1-4.8-2.7-4.1-3-5.4-2.7-10.4.4-6.1,4-12.2,8.2-13.8,1.7-.6,6-4.3,4.5-3.9C87.7,49.2,84.6,50.4,81,51.9Z" transform="translate(-0.96 -2.06)"/><path class="cls-1" d="M93.4,54c-7.2,3.6-11.1,6.6-10.1,7.6.4.4,2-.4,3.5-1.8,5-4.6,7.5-5.8,12.6-5.8a15.75,15.75,0,0,1,8.3,2.1c3.9,2.4,5.5,1.8,2.8-1.1-1.6-1.8-7.2-4-10.1-4C99.8,51,96.7,52.3,93.4,54Z" transform="translate(-0.96 -2.06)"/><path class="cls-2" d="M99.2,57.1a1.35,1.35,0,0,0,2.6,0c.2-.6-.4-1.1-1.3-1.1S99,56.5,99.2,57.1Z" transform="translate(-0.96 -2.06)"/><path class="cls-1" d="M109.9,62.3c-3.7,2.4-6.1,6.6-7.9,13.5a23.89,23.89,0,0,1-5.1,8.7C93.3,88.4,92,91,93.8,91c2.3-.1,5.6-4.7,10.1-14.2,4.2-8.9,5.8-11.3,9.1-13.4a25.51,25.51,0,0,0,4-3C117,59.2,112.8,60.3,109.9,62.3Z" transform="translate(-0.96 -2.06)"/><path class="cls-1" d="M164.2,63.2c-1.3,1.3-1.6,4.8-.4,4.9.4,0,1.7.2,2.9.3,2.5.3,3.7-1.7,2.8-4.5C168.8,61.8,166,61.4,164.2,63.2Z" transform="translate(-0.96 -2.06)"/><path class="cls-1" d="M177.9,63.6c-2.6,3.2,2.4,6.3,5.4,3.4,1.4-1.3-.3-5-2.2-5A4.93,4.93,0,0,0,177.9,63.6Z" transform="translate(-0.96 -2.06)"/><path class="cls-1" d="M173.5,71.2c-7.2,2.5-9.9,8-9.3,19.1.4,8,3.3,13.7,6.9,13.7,3.2,0,3.2-2.5,0-7.3-5.5-8-3.7-19.2,3.8-24.3C178.7,69.8,178.3,69.5,173.5,71.2Z" transform="translate(-0.96 -2.06)"/><path class="cls-1" d="M163.3,72.8c-8.4,3.4-10.7,8-10.1,19.5.4,8,3.3,13.7,6.9,13.7,3.2,0,3.2-2.5,0-7.3-5.6-8.1-3.7-19.3,4.1-24.4C169.7,70.6,169.6,70.3,163.3,72.8Z" transform="translate(-0.96 -2.06)"/><path class="cls-1" d="M3.8,101.9A27.49,27.49,0,0,1,8,106.8c0,.4.9,1.3,2,2s2,1.7,2,2.2,1.6,2.5,3.6,4.2c2.2,2,3.4,3.8,3.1,4.8-.3,1.3,1.4,2.7,7.2,5.8,17.2,9.1,48.2,14.2,78,12.8,30.8-1.4,43.8-3.1,58.5-7.6,21.6-6.6,25.4-11,14.6-16.7-8.8-4.7-10.6-4.7-19.2-.3-7.9,4-25.9,10-38.3,12.6-8.8,1.9-39.7,1.8-54-.2-16.7-2.3-36.7-9.2-43.1-15-3.9-3.4-17-11.6-20.9-13C.3,98,1.1,99.3,3.8,101.9Z" transform="translate(-0.96 -2.06)"/><path class="cls-2" d="M93.5,152.8c-2.7.2-5.4.7-5.8,1.1s-3.8.6-7.5.4c-6.4-.5-6.9-.4-11.7,3.1-2.7,2-8.8,6.1-13.4,9.1-7,4.6-8.5,6-8.6,8.2a6.18,6.18,0,0,0,5.8,6.3,5.64,5.64,0,0,1,3.1.7c.3.4,2.8.6,5.4.4a24.69,24.69,0,0,1,8.4,1.3,20,20,0,0,0,6.3,1.6c3.7,0,3.2,2.4-2.5,10-2.7,3.7-5,7.3-5,8a5.74,5.74,0,0,1-1.9,2.8c-3.2,2.7-6.4,9.5-6.2,12.8a16,16,0,0,1-.9,5.8c-.8,2.1-.7,2.6.5,2.6,1.8,0,1.9,1.1.3,4.5A3.67,3.67,0,0,1,56,234a6.5,6.5,0,0,0-3.2.6c-1.1,1,.4,4.4,1.9,4.4,1.1,0,1.4.7.9,2.7-1.2,4.7-3,8.3-4.3,8.3-.7,0-1,.7-.7,1.5a8.55,8.55,0,0,1-.6,4.7c-.6,1.8-2,6.6-3.1,10.7s-2.6,8-3.4,8.8a5.34,5.34,0,0,0-1.5,3c0,.9-1.2,4-2.7,7-2.1,4.5-2.4,5.6-1.2,6.3s1,1.5-.4,4.5c-2.5,5.1-2.2,9.7.7,12.4a12.39,12.39,0,0,1,3,4.7c.8,3.1,4.5,4,8.3,2,6.1-3.1,22.3-30.5,22.3-37.7,0-2.4.5-3.9,1.5-4.3s1.5-1.8,1.5-3.5a17.18,17.18,0,0,1,1.2-5.8,12.38,12.38,0,0,0,.9-4.6c-.1-.9.4-1.7,1.1-1.7s2.8-3,4.5-6.8A139.19,139.19,0,0,1,92,236c3.2-4.7,5.9-9.1,6-9.8a1.2,1.2,0,0,1,1-1.2c.6,0,1-.7,1-1.6a9,9,0,0,1,2-4.1,8.94,8.94,0,0,0,2-3.9,1.92,1.92,0,0,1,.8-1.6c1.1-.4,9.2-12.2,9.2-13.3,0-.5,1.1-2.2,2.4-3.9a53.7,53.7,0,0,0,4.4-7.1c3.6-6.8,5.6-8.4,12.8-10.3,6.1-1.6,6.9-2,6.6-4-.2-1.2.2-2.2.7-2.2a1.11,1.11,0,0,0,1.1-1.1c0-1.3,2.5-3.9,3.9-3.9,2.2,0,3.9-3.1,3.6-6.6a12.64,12.64,0,0,0-.7-3.8,20.17,20.17,0,0,1-2.5-1.4,13.57,13.57,0,0,0-4.8-1.2,29.31,29.31,0,0,1-7.7-1.7c-4.3-1.4-6.2-1.4-12.2-.5-3.9.6-7.3.7-7.6.3C113.5,152.3,103.8,152.2,93.5,152.8ZM65,224.5c0,1.6-.6,2.5-1.5,2.5-1.3,0-1.5-1.7-.6-4.8A2.33,2.33,0,0,1,64,222C64.6,222,65,223.1,65,224.5Z" transform="translate(-0.96 -2.06)"/></svg>