<?xml version="1.0" encoding="utf-8"?>
<!-- Generator: Adobe Illustrator 23.0.1, SVG Export Plug-In . SVG Version: 6.00 Build 0)  -->
<svg version="1.1" id="Laag_1" xmlns="http://www.w3.org/2000/svg" xmlns:xlink="http://www.w3.org/1999/xlink" x="0px" y="0px"
	 viewBox="0 0 1920 1080" style="enable-background:new 0 0 1920 1080;" xml:space="preserve">
<style type="text/css">
	.st0{opacity:0.4;fill:#7677D4;}
	.st1{fill:#7677D4;stroke:#7677D4;stroke-miterlimit:10;}
</style>
<path class="st0" d="M1895.28,340h-922.4c-278.49,0-556.98,0-835.48,0c-45.8,0-91.6,0-137.4,0c0,23.75,0,48.48,0,72.26
	c49.31,37.37,132.42,66.33,233.45,81.05l3.91,0.57C381.68,514.9,542.49,519.17,658,485c115.66-34.22,138.79-83.63,241-58
	c69.79,17.5,143.83,48.36,208,63c92.5,21.1,132.8,30.22,157,33c61,7,77.12,4.59,99.87,5.89l0,0
	c113.38,6.51,226.45-15.79,323.35-63.79l57-28.23L1920,340C1911.76,340,1903.52,340,1895.28,340z"/>
<path class="st1" d="M0,340.5h1918l-190.56,86.53c-68.25,30.99-218.08,38.97-320.75,16.6c-1.19-0.26-2.37-0.52-3.54-0.79
	c-9.69-2.2-18.56-4.67-26.7-7.31l-266.3-84.06c-0.4-0.13-0.82-0.22-1.24-0.28c-18.3-2.54-36.55-5.65-53.61-5.15
	c-109.51,3.21-211.29,52.12-316.59,80.03c-111.59,29.57-273.6,38.84-417.75,23.89l-3.9-0.41
	c-108.05-11.21-195.58-34.03-243.11-63.38L0,340.5z"/>
</svg>
