<?xml version="1.0" standalone="no"?>
<!DOCTYPE svg PUBLIC "-//W3C//DTD SVG 20010904//EN"
 "http://www.w3.org/TR/2001/REC-SVG-20010904/DTD/svg10.dtd">
<svg version="1.0" xmlns="http://www.w3.org/2000/svg"
 width="185.000000pt" height="320.000000pt" viewBox="0 0 185.000000 320.000000"
 preserveAspectRatio="xMidYMid meet">

<g transform="translate(0.000000,320.000000) scale(0.100000,-0.100000)"
fill="#000000" stroke="none">
<path d="M900 3170 c-31 -18 -83 -40 -96 -40 -7 0 -25 -6 -41 -14 -63 -33
-135 -57 -152 -51 -18 5 -151 -86 -151 -105 0 -5 -6 -15 -13 -22 -25 -26 -77
-145 -93 -214 -28 -120 -4 -353 47 -462 37 -77 114 -171 162 -196 32 -18 40
-18 76 -6 38 12 111 73 111 92 0 12 -28 40 -66 66 -17 11 -44 40 -60 64 -16
24 -43 62 -60 85 -57 75 -67 118 -62 251 4 90 11 132 30 183 36 98 130 209
207 245 37 17 191 122 191 130 0 6 -13 4 -30 -6z"/>
<path d="M955 2856 c39 -19 100 -48 137 -65 79 -37 161 -114 188 -176 28 -66
36 -176 16 -228 -19 -51 -127 -160 -193 -196 -26 -14 -48 -31 -50 -37 -2 -7
16 -23 41 -38 51 -30 116 -34 170 -12 52 22 151 126 169 177 64 186 57 275
-31 391 -23 32 -57 68 -75 81 -50 37 -118 69 -135 62 -8 -3 -37 2 -66 10 -69
20 -196 55 -221 61 -11 2 12 -11 50 -30z"/>
<path d="M810 2681 c-81 -35 -110 -80 -110 -175 1 -105 59 -193 109 -166 22
11 29 40 11 40 -6 0 -24 21 -41 48 -27 41 -30 54 -27 104 4 61 40 122 82 138
17 6 60 43 45 39 -2 -1 -33 -13 -69 -28z"/>
<path d="M934 2660 c-72 -36 -111 -66 -101 -76 4 -4 20 4 35 18 50 46 75 58
126 58 32 0 60 -7 83 -21 39 -24 55 -18 28 11 -16 18 -72 40 -101 40 -6 0 -37
-13 -70 -30z"/>
<path d="M992 2629 c2 -6 8 -10 13 -10 5 0 11 4 13 10 2 6 -4 11 -13 11 -9 0
-15 -5 -13 -11z"/>
<path d="M1099 2577 c-37 -24 -61 -66 -79 -135 -7 -26 -28 -62 -51 -87 -36
-39 -49 -65 -31 -65 23 1 56 47 101 142 42 89 58 113 91 134 22 15 40 28 40
30 0 12 -42 1 -71 -19z"/>
<path d="M1642 2568 c-13 -13 -16 -48 -4 -49 4 0 17 -2 29 -3 25 -3 37 17 28
45 -7 21 -35 25 -53 7z"/>
<path d="M1779 2564 c-26 -32 24 -63 54 -34 14 13 -3 50 -22 50 -10 0 -24 -7
-32 -16z"/>
<path d="M1735 2488 c-72 -25 -99 -80 -93 -191 4 -80 33 -137 69 -137 32 0 32
25 0 73 -55 80 -37 192 38 243 38 26 34 29 -14 12z"/>
<path d="M1633 2472 c-84 -34 -107 -80 -101 -195 4 -80 33 -137 69 -137 32 0
32 25 0 73 -56 81 -37 193 41 244 55 37 54 40 -9 15z"/>
<path d="M38 2181 c23 -23 42 -46 42 -49 0 -4 9 -13 20 -20 11 -7 20 -17 20
-22 0 -6 16 -25 36 -42 22 -20 34 -38 31 -48 -3 -13 14 -27 72 -58 172 -91
482 -142 780 -128 308 14 438 31 585 76 216 66 254 110 146 167 -88 47 -106
47 -192 3 -79 -40 -259 -100 -383 -126 -88 -19 -397 -18 -540 2 -167 23 -367
92 -431 150 -39 34 -170 116 -209 130 -12 4 -4 -9 23 -35z"/>
<path d="M935 1672 c-27 -2 -54 -7 -58 -11 -5 -5 -38 -6 -75 -4 -64 5 -69 4
-117 -31 -27 -20 -88 -61 -134 -91 -70 -46 -85 -60 -86 -82 -1 -33 27 -63 58
-63 13 0 27 -3 31 -7 3 -4 28 -6 54 -4 26 1 64 -5 84 -13 21 -9 49 -16 63 -16
37 0 32 -24 -25 -100 -27 -37 -50 -73 -50 -80 0 -6 -9 -19 -19 -28 -32 -27
-64 -95 -62 -128 1 -17 -3 -43 -9 -58 -8 -21 -7 -26 5 -26 18 0 19 -11 3 -45
-8 -18 -19 -25 -38 -25 -15 0 -29 -3 -32 -6 -11 -10 4 -44 19 -44 11 0 14 -7
9 -27 -12 -47 -30 -83 -43 -83 -7 0 -10 -7 -7 -15 3 -8 1 -29 -6 -47 -6 -18
-20 -66 -31 -107 -11 -40 -26 -80 -34 -88 -8 -8 -15 -22 -15 -30 0 -9 -12 -40
-27 -70 -21 -45 -24 -56 -12 -63 11 -7 10 -15 -4 -45 -25 -51 -22 -97 7 -124
13 -13 27 -34 30 -47 8 -31 45 -40 83 -20 61 31 223 305 223 377 0 24 5 39 15
43 9 3 15 18 15 35 0 16 5 42 12 58 6 15 10 36 9 46 -1 9 4 17 11 17 7 0 28
30 45 68 18 37 60 105 93 152 32 47 59 91 60 98 0 6 5 12 10 12 6 0 10 7 10
16 0 9 9 27 20 41 11 14 20 31 20 39 0 7 4 14 8 16 11 4 92 122 92 133 0 5 11
22 24 39 13 17 33 49 44 71 36 68 56 84 128 103 61 16 69 20 66 40 -2 12 2 22
7 22 6 0 11 5 11 11 0 13 25 39 39 39 22 0 39 31 36 66 -2 20 -5 37 -7 38 -2
0 -13 7 -25 14 -13 6 -34 12 -48 12 -15 0 -49 7 -77 17 -43 14 -62 14 -122 5
-39 -6 -73 -7 -76 -3 -5 8 -102 9 -205 3z m-285 -717 c0 -16 -6 -25 -15 -25
-13 0 -15 17 -6 48 1 1 6 2 11 2 6 0 10 -11 10 -25z"/>
</g>
</svg>
