<?xml version="1.0" encoding="utf-8"?>
<!-- Generator: Adobe Illustrator 24.1.0, SVG Export Plug-In . SVG Version: 6.00 Build 0)  -->
<svg version="1.1" id="Layer_1" xmlns="http://www.w3.org/2000/svg" xmlns:xlink="http://www.w3.org/1999/xlink" x="0px" y="0px"
	 viewBox="0 0 100 125" style="enable-background:new 0 0 100 125;" xml:space="preserve">
<path d="M12.6,84.6h74.9c4.2,0,7.6-3.4,7.6-7.6V34.2c0-4.2-3.4-7.6-7.6-7.6H76.3c-3.9,0-7.3-2.7-8.1-6.5c-0.6-2.7-3-4.7-5.8-4.7
	H37.6c-2.8,0-5.2,1.9-5.8,4.7c-0.8,3.8-4.2,6.5-8.1,6.5H12.6C8.4,26.6,5,30,5,34.2c0,0,0,0,0,0v42.9C5,81.2,8.4,84.6,12.6,84.6
	C12.6,84.6,12.6,84.6,12.6,84.6z M83.4,32.3c2.6,0,4.8,2.1,4.8,4.8c0,2.6-2.1,4.8-4.8,4.8c-2.6,0-4.8-2.1-4.8-4.8c0,0,0,0,0,0
	C78.6,34.5,80.7,32.3,83.4,32.3C83.4,32.3,83.4,32.3,83.4,32.3z M50,30.9c12.5,0,22.7,10.2,22.7,22.7S62.5,76.3,50,76.3
	S27.3,66.2,27.3,53.6c0,0,0,0,0,0C27.3,41.1,37.5,30.9,50,30.9L50,30.9z M32.3,53.6c0-9.8,7.9-17.7,17.7-17.7s17.7,7.9,17.7,17.7
	S59.8,71.3,50,71.3h0C40.2,71.3,32.3,63.4,32.3,53.6z"/>
</svg>
