<?xml version="1.0" encoding="utf-8"?>
<!-- Generator: Adobe Illustrator 24.1.0, SVG Export Plug-In . SVG Version: 6.00 Build 0)  -->
<svg version="1.1" id="Layer_1" xmlns="http://www.w3.org/2000/svg" xmlns:xlink="http://www.w3.org/1999/xlink" x="0px" y="0px"
	 viewBox="0 0 52 65" style="enable-background:new 0 0 52 65;" xml:space="preserve">
<style type="text/css">
	.st0{stroke:#000000;stroke-width:0.25;stroke-miterlimit:10;}
</style>
<g>
	<g>
		<g>
			<path class="st0" d="M43.3,31.4l-0.3-2c0.2,0,0.4-0.1,0.6-0.2c4.9-1.7,6.7-4,5.8-7.7c-0.8-3.5-3.7-7.5-6.6-9.1
				c-0.8-0.4-2-0.9-3-0.6c-0.6,0.2-1.2,0.6-1.7,1l-1.3-1.5c0.7-0.6,1.5-1.1,2.4-1.4c1.4-0.5,3-0.2,4.6,0.7c3.4,1.9,6.6,6.4,7.5,10.4
				c1.6,7.1-5,9.4-7.1,10.1C43.9,31.2,43.6,31.3,43.3,31.4z"/>
		</g>
		<g>
			<path class="st0" d="M6.8,31.4c-0.3,0-0.6-0.1-0.9-0.2c-3.2-1.1-6.7-3.8-5.1-10.9c0.8-3.7,3-8.2,6-9.9c1.3-0.7,2.7-0.9,4-0.5
				c0.8,0.3,1.7,0.8,2.4,1.4L12,12.9c-0.6-0.5-1.1-0.8-1.7-1c-0.8-0.3-1.6-0.2-2.4,0.3c-2.1,1.2-4.2,4.7-5.1,8.6
				c-1.1,4.6,0.1,7.3,3.7,8.5c0.2,0.1,0.4,0.1,0.6,0.2L6.8,31.4z"/>
		</g>
		<g>
			<path class="st0" d="M25,45.6C14.2,45.6,5.4,36.8,5.4,26S14.2,6.4,25,6.4S44.6,15.2,44.6,26S35.8,45.6,25,45.6z M25,8.4
				C15.3,8.4,7.4,16.3,7.4,26S15.3,43.6,25,43.6S42.6,35.7,42.6,26S34.7,8.4,25,8.4z"/>
		</g>
		<g>
			<path class="st0" d="M32.6,22.3c-2,0-3.5-1.6-3.5-3.5s1.6-3.5,3.5-3.5s3.5,1.6,3.5,3.5S34.6,22.3,32.6,22.3z M32.6,17.2
				c-0.9,0-1.5,0.7-1.5,1.5s0.7,1.5,1.5,1.5c0.9,0,1.5-0.7,1.5-1.5S33.5,17.2,32.6,17.2z"/>
		</g>
		<g>
			<path class="st0" d="M17.4,22.3c-2,0-3.5-1.6-3.5-3.5s1.6-3.5,3.5-3.5s3.5,1.6,3.5,3.5S19.4,22.3,17.4,22.3z M17.4,17.2
				c-0.9,0-1.5,0.7-1.5,1.5s0.7,1.5,1.5,1.5s1.5-0.7,1.5-1.5S18.3,17.2,17.4,17.2z"/>
		</g>
		<g>
			<path class="st0" d="M24.9,33.3c0-0.1-0.1-0.1-0.1-0.2c-0.1,0-0.2,0-0.2,0l0.1-0.2c-0.1-0.2-0.2-0.3-0.3-0.6l-0.1-0.1l0.6-0.3
				l0.2-0.7c-0.4-0.1-0.8,0.1-1,0.3c0.3-0.5,0.6-0.8,1.1-0.8h0.6l0.3,0.7c0.1,0.1,0.1,0.3,0.2,0.4c0.2,0.2,0.2,0.5,0.2,0.7h-0.8
				c-0.2,0.3-0.5,0.5-0.7,0.5L24.9,33.3z M25.1,32.6h0.4l-0.1,0.1c0.1,0,0.2-0.1,0.2-0.1H25.1z M24.6,32.6L24.6,32.6L24.6,32.6z"/>
		</g>
		<g>
			<path class="st0" d="M25,41.3c-2.3,0-4.2-1.9-4.2-4.2v-3.2h2v3.2c0,1.2,1,2.2,2.2,2.2c1.2,0,2.2-1,2.2-2.2v-3.2h2v3.2
				C29.2,39.4,27.3,41.3,25,41.3z"/>
		</g>
	</g>
	<g>
		<g>
			<path class="st0" d="M28,34.9c-1.2,0-2.2-0.5-3-1.3c-0.7,0.8-1.8,1.3-3,1.3c-1.6,0-3-1-3.7-2.4c-0.2-0.5,0-1.1,0.5-1.3
				c0.5-0.2,1.1,0,1.3,0.5c0.3,0.7,1,1.2,1.8,1.2c1.1,0,2-0.9,2-2c0-0.6,0.4-1,1-1s1,0.4,1,1c0,1.1,0.9,2,2,2c0.8,0,1.5-0.5,1.8-1.2
				c0.2-0.5,0.8-0.7,1.3-0.5c0.5,0.2,0.7,0.8,0.5,1.3C31.1,34,29.6,34.9,28,34.9z"/>
		</g>
		<g>
			<path class="st0" d="M25,29.2c-1.8,0-3.2-1.5-3.2-3.2s1.5-3.2,3.2-3.2c1.8,0,3.2,1.5,3.2,3.2S26.8,29.2,25,29.2z M25,24.8
				c-0.7,0-1.2,0.6-1.2,1.2c0,0.7,0.6,1.2,1.2,1.2s1.2-0.6,1.2-1.2C26.3,25.3,25.7,24.8,25,24.8z"/>
		</g>
		<g>
			<rect x="24" y="28.2" class="st0" width="2" height="2.7"/>
		</g>
	</g>
</g>
</svg>
