<?xml version="1.0" encoding="utf-8"?>
<!-- Generator: Adobe Illustrator 24.1.0, SVG Export Plug-In . SVG Version: 6.00 Build 0)  -->
<svg version="1.1" id="Layer_1" xmlns="http://www.w3.org/2000/svg" xmlns:xlink="http://www.w3.org/1999/xlink" x="0px" y="0px"
	 viewBox="0 0 52 65" style="enable-background:new 0 0 52 65;" xml:space="preserve">
<style type="text/css">
	.st0{stroke:#000000;stroke-width:0.25;stroke-miterlimit:10;}
</style>
<g>
	<g>
		<path class="st0" d="M26,51C12.4,51,1.4,40,1.4,26.4S12.4,1.8,26,1.8s24.6,11,24.6,24.6S39.6,51,26,51z M26,3.8
			C13.6,3.8,3.4,14,3.4,26.4C3.4,38.9,13.6,49,26,49s22.6-10.1,22.6-22.6C48.6,14,38.4,3.8,26,3.8z"/>
	</g>
	<g>
		<g>
			<path class="st0" d="M26,44.8c-6,0-10.9-4.9-10.9-10.9S20,23,26,23s10.9,4.9,10.9,10.9S32,44.8,26,44.8z M26,25
				c-4.9,0-8.9,4-8.9,8.9s4,8.9,8.9,8.9s8.9-4,8.9-8.9S30.9,25,26,25z"/>
		</g>
		<g>
			<path class="st0" d="M28.2,39c-0.9,0-1.6-0.3-2.2-0.9c-0.6,0.5-1.3,0.9-2.2,0.9c-1.8,0-3.2-1.4-3.2-3.2c0-0.6,0.4-1,1-1
				s1,0.4,1,1c0,0.7,0.5,1.2,1.2,1.2s1.2-0.5,1.2-1.2c0-0.6,0.4-1,1-1s1,0.4,1,1c0,0.7,0.5,1.2,1.2,1.2s1.2-0.5,1.2-1.2
				c0-0.6,0.4-1,1-1s1,0.4,1,1C31.4,37.6,30,39,28.2,39z"/>
		</g>
		<g>
			<path class="st0" d="M26,34.2c-1.8,0-3.2-1.4-3.2-3.2s1.4-3.2,3.2-3.2s3.2,1.4,3.2,3.2C29.2,32.8,27.8,34.2,26,34.2z M26,29.9
				c-0.6,0-1.2,0.5-1.2,1.2c0,0.6,0.5,1.2,1.2,1.2c0.6,0,1.2-0.5,1.2-1.2C27.2,30.4,26.6,29.9,26,29.9z"/>
		</g>
		<g>
			<rect x="25" y="33.2" class="st0" width="2" height="2.6"/>
		</g>
	</g>
	<g>
		<g>
			<path class="st0" d="M33,19.2c-2.3,0-4.2-1.9-4.2-4.2s1.9-4.2,4.2-4.2s4.2,1.9,4.2,4.2C37.3,17.3,35.4,19.2,33,19.2z M33,12.8
				c-1.2,0-2.2,1-2.2,2.2c0,1.2,1,2.2,2.2,2.2s2.2-1,2.2-2.2S34.3,12.8,33,12.8z"/>
		</g>
		<g>
			<path class="st0" d="M19,19.2c-2.3,0-4.2-1.9-4.2-4.2s1.9-4.2,4.2-4.2s4.2,1.9,4.2,4.2S21.3,19.2,19,19.2z M19,12.8
				c-1.2,0-2.2,1-2.2,2.2c0,1.2,1,2.2,2.2,2.2s2.2-1,2.2-2.2S20.2,12.8,19,12.8z"/>
		</g>
	</g>
	<g>
		<g>
			<path class="st0" d="M45.5,12.9l-1.4-1.4l1.4-1.4c0.8-0.8,1.2-1.8,1.2-2.9S46.3,5,45.5,4.3c-0.8-0.9-1.9-1.3-3-1.3
				s-2.2,0.4-2.9,1.2l-2,2l-1.4-1.4l2-2C39.3,1.6,40.9,1,42.5,1s3.2,0.6,4.4,1.8C48,4,48.7,5.5,48.7,7.2c0,1.6-0.6,3.2-1.8,4.4
				L45.5,12.9z"/>
		</g>
		<g>
			<path class="st0" d="M6.5,12.9l-1.4-1.4C4,10.3,3.3,8.8,3.3,7.2C3.3,5.5,4,4,5.1,2.8C6.3,1.6,7.8,1,9.5,1s3.2,0.6,4.4,1.8l2,2
				l-1.4,1.4l-2-2C11.6,3.4,10.6,3,9.5,3s-2.2,0.4-3,1.2C5.8,5,5.3,6,5.3,7.2c0,1.1,0.4,2.2,1.2,2.9l1.4,1.4L6.5,12.9z"/>
		</g>
	</g>
</g>
</svg>
