<?xml version="1.0" encoding="utf-8"?>
<!-- Generator: Adobe Illustrator 24.1.0, SVG Export Plug-In . SVG Version: 6.00 Build 0)  -->
<svg version="1.1" id="Layer_1" xmlns="http://www.w3.org/2000/svg" xmlns:xlink="http://www.w3.org/1999/xlink" x="0px" y="0px"
	 viewBox="0 0 96 120" style="enable-background:new 0 0 96 120;" xml:space="preserve" fill="#E9856E">
<path d="M88.5,20c1.1,0,2-0.9,2-2c0,0,0,0,0,0v-4c0-1.1-0.9-2-2-2c0,0,0,0,0,0h-80c-1.1,0-2,0.9-2,2c0,0,0,0,0,0v4c0,1.1,0.9,2,2,2
	c0,0,0,0,0,0h2v56h-2c-1.1,0-2,0.9-2,2c0,0,0,0,0,0v4c0,1.1,0.9,2,2,2c0,0,0,0,0,0h80c1.1,0,2-0.9,2-2c0,0,0,0,0,0v-4
	c0-1.1-0.9-2-2-2c0,0,0,0,0,0h-2V20H88.5z M68.5,48c-1.1,0-2,0.9-2,2c0,0,0,0,0,0v12c0,1.1,0.9,2,2,2c0,0,0,0,0,0h2v12h-8V20h8v28
	H68.5z M46.5,20v56h-8V20H46.5z M50.5,76V20h8v56H50.5z M34.5,20v56h-8V20H34.5z M14.5,20h8v56h-8V20z M82.5,76h-8V64h2
	c1.1,0,2-0.9,2-2c0,0,0,0,0,0V50c0-1.1-0.9-2-2-2c0,0,0,0,0,0h-2V20h8V76z"/>
</svg>
