<?xml version="1.0" encoding="utf-8"?>
<!-- Generator: Adobe Illustrator 24.1.0, SVG Export Plug-In . SVG Version: 6.00 Build 0)  -->
<svg version="1.1" id="Layer_1" xmlns="http://www.w3.org/2000/svg" xmlns:xlink="http://www.w3.org/1999/xlink" x="0px" y="0px"
	 viewBox="0 0 52 65" style="enable-background:new 0 0 52 65;" xml:space="preserve" fill="#E9856E">
<style type="text/css">
	.st0{stroke:#E9856E;stroke-width:0.25;stroke-miterlimit:10;}
</style>
<g>
	<g>
		<path class="st0" d="M26,47.3c-11.7,0-21.1-9.5-21.1-21.1S14.3,5,26,5s21.1,9.5,21.1,21.1S37.7,47.3,26,47.3z M26,7
			C15.4,7,6.9,15.6,6.9,26.2c0,10.6,8.6,19.1,19.1,19.1c10.6,0,19.1-8.6,19.1-19.1C45.1,15.6,36.6,7,26,7z"/>
	</g>
	<g>
		<g>
			<path class="st0" d="M29,39.6c-1.2,0-2.2-0.5-3-1.3c-0.7,0.8-1.8,1.3-3,1.3c-1.6,0-3-1-3.7-2.4c-0.2-0.5,0-1.1,0.5-1.3
				c0.5-0.2,1.1,0,1.3,0.5c0.3,0.7,1,1.2,1.8,1.2c1.1,0,2-0.9,2-2c0-0.6,0.4-1,1-1s1,0.4,1,1c0,1.1,0.9,2,2,2c0.8,0,1.5-0.5,1.8-1.2
				c0.2-0.5,0.8-0.7,1.3-0.5c0.5,0.2,0.7,0.8,0.5,1.3C32,38.6,30.6,39.6,29,39.6z"/>
		</g>
		<g>
			<path class="st0" d="M26,33.9c-1.8,0-3.2-1.5-3.2-3.2s1.5-3.2,3.2-3.2s3.2,1.5,3.2,3.2S27.8,33.9,26,33.9z M26,29.4
				c-0.7,0-1.2,0.6-1.2,1.2s0.6,1.2,1.2,1.2c0.7,0,1.2-0.6,1.2-1.2S26.7,29.4,26,29.4z"/>
		</g>
		<g>
			<rect x="25" y="32.9" class="st0" width="2" height="2.7"/>
		</g>
	</g>
	<g>
		<g>
			<g>
				<path class="st0" d="M34.2,22.1c-2.1,0-3.8-1.7-3.8-3.8s1.7-3.8,3.8-3.8s3.8,1.7,3.8,3.8S36.3,22.1,34.2,22.1z M34.2,16.5
					c-1,0-1.8,0.8-1.8,1.8c0,1,0.8,1.8,1.8,1.8c1,0,1.8-0.8,1.8-1.8C36,17.3,35.2,16.5,34.2,16.5z"/>
			</g>
		</g>
		<g>
			<g>
				<path class="st0" d="M17.8,22.1c-2.1,0-3.8-1.7-3.8-3.8s1.7-3.8,3.8-3.8s3.8,1.7,3.8,3.8S19.8,22.1,17.8,22.1z M17.8,16.5
					c-1,0-1.8,0.8-1.8,1.8c0,1,0.8,1.8,1.8,1.8c1,0,1.8-0.8,1.8-1.8C19.5,17.3,18.7,16.5,17.8,16.5z"/>
			</g>
		</g>
	</g>
	<g>
		<g>
			<path class="st0" d="M43.1,15.3l-1.3-1.5c0.1-0.1,0.2-0.2,0.3-0.3c2-2,2.3-5.3,2.3-6.8c-1.6,0-4.8,0.3-6.8,2.3
				c-0.2,0.2-0.4,0.4-0.5,0.5l-1.5-1.3C35.8,8,36,7.8,36.2,7.6c3.4-3.4,9.1-2.9,9.3-2.9c0.5,0,0.9,0.4,0.9,0.9c0,0.2,0.5,6-2.9,9.3
				C43.4,15.1,43.3,15.2,43.1,15.3z"/>
		</g>
		<g>
			<path class="st0" d="M8.9,15.3c-0.1-0.1-0.3-0.3-0.4-0.4c-3.4-3.4-2.9-9.1-2.9-9.3c0-0.5,0.4-0.9,0.9-0.9c0.2,0,6-0.5,9.3,2.9
				C16,7.8,16.2,8,16.4,8.3l-1.5,1.3c-0.2-0.2-0.3-0.4-0.5-0.5c-2-2-5.3-2.3-6.8-2.3c0,1.6,0.3,4.8,2.3,6.8c0.1,0.1,0.2,0.2,0.3,0.3
				L8.9,15.3z"/>
		</g>
	</g>
	<g>
		<g>
			<g>
				<path class="st0" d="M37.8,25.6c-0.5,0-0.9-0.4-1-0.9c-0.1-0.5,0.3-1.1,0.9-1.1L49.9,22c0.5-0.1,1.1,0.3,1.1,0.9
					c0.1,0.5-0.3,1.1-0.9,1.1l-12.2,1.7C37.9,25.6,37.9,25.6,37.8,25.6z"/>
			</g>
			<g>
				<path class="st0" d="M50,28.7H37.8c-0.6,0-1-0.4-1-1s0.4-1,1-1H50c0.6,0,1,0.4,1,1S50.6,28.7,50,28.7z"/>
			</g>
			<g>
				<path class="st0" d="M50,33.3c0,0-0.1,0-0.1,0l-12.2-1.7c-0.5-0.1-0.9-0.6-0.9-1.1c0.1-0.5,0.6-0.9,1.1-0.9l12.2,1.7
					c0.5,0.1,0.9,0.6,0.9,1.1C50.9,33,50.5,33.3,50,33.3z"/>
			</g>
		</g>
		<g>
			<g>
				<path class="st0" d="M14.2,25.6c0,0-0.1,0-0.1,0L1.9,24c-0.5-0.1-0.9-0.6-0.9-1.1c0.1-0.5,0.6-0.9,1.1-0.9l12.2,1.7
					c0.5,0.1,0.9,0.6,0.9,1.1C15.1,25.3,14.7,25.6,14.2,25.6z"/>
			</g>
			<g>
				<path class="st0" d="M14.2,28.7H2c-0.6,0-1-0.4-1-1s0.4-1,1-1h12.2c0.6,0,1,0.4,1,1S14.7,28.7,14.2,28.7z"/>
			</g>
			<g>
				<path class="st0" d="M2,33.3c-0.5,0-0.9-0.4-1-0.9c-0.1-0.5,0.3-1.1,0.9-1.1l12.2-1.7c0.5-0.1,1.1,0.3,1.1,0.9
					c0.1,0.5-0.3,1.1-0.9,1.1L2.1,33.3C2.1,33.3,2,33.3,2,33.3z"/>
			</g>
		</g>
	</g>
</g>
</svg>
