<?xml version="1.0" encoding="utf-8"?>
<!-- Generator: Adobe Illustrator 24.1.0, SVG Export Plug-In . SVG Version: 6.00 Build 0)  -->
<svg version="1.1" id="Layer_1" xmlns="http://www.w3.org/2000/svg" xmlns:xlink="http://www.w3.org/1999/xlink" x="0px" y="0px"
	 viewBox="0 0 24 30" style="enable-background:new 0 0 24 30;" xml:space="preserve" fill="#E9856E">
<style type="text/css">
	.st0{fill-rule:evenodd;clip-rule:evenodd;}
</style>
<desc>Created with Sketch.</desc>
<g>
	<path class="st0" d="M15.5,16c-0.8,0-1.5-0.7-1.5-1.5s0.7-1.5,1.5-1.5s1.5,0.7,1.5,1.5S16.3,16,15.5,16 M10.5,18
		C9.7,18,9,17.3,9,16.5c0-0.8,0.7-1.5,1.5-1.5s1.5,0.7,1.5,1.5C12,17.3,11.3,18,10.5,18 M7.5,12C6.7,12,6,11.3,6,10.5S6.7,9,7.5,9
		S9,9.7,9,10.5S8.3,12,7.5,12 M22,11.9c-0.2,0-0.4,0.1-0.6,0.1c-1,0-1.9-0.5-2.3-1.3c-0.3,0.1-0.6,0.2-1,0.2c-1.4,0-2.5-1-2.7-2.3
		c-1.3-0.2-2.3-1.4-2.3-2.7c0-0.3,0.1-0.7,0.2-1C12.5,4.4,12,3.5,12,2.6c0-0.2,0-0.4,0.1-0.6c0,0,0,0-0.1,0C6.5,2,2,6.5,2,12
		c0,5.5,4.5,10,10,10S22,17.5,22,11.9C22,12,22,12,22,11.9"/>
</g>
</svg>
