<?xml version="1.0" encoding="utf-8"?>
<!-- Generator: Adobe Illustrator 24.1.0, SVG Export Plug-In . SVG Version: 6.00 Build 0)  -->
<svg version="1.1" id="Layer_1" xmlns="http://www.w3.org/2000/svg" xmlns:xlink="http://www.w3.org/1999/xlink" x="0px" y="0px"
	 viewBox="0 0 52 65" style="enable-background:new 0 0 52 65;" xml:space="preserve" fill="#E9856E">
<style type="text/css">
	.st0{stroke:#E9856E;stroke-width:0.25;stroke-miterlimit:10;}
</style>
<g>
	<g>
		<path class="st0" d="M21.5,36.7c-0.1,0-0.2,0-0.3,0c-7.9-2.1-13.4-9.3-13.4-17.5C7.9,9.1,16,1,26,1s18.1,8.1,18.1,18.1
			c0,7.3-4.3,13.8-11,16.7c-0.5,0.2-1.1,0-1.3-0.5s0-1.1,0.5-1.3c6-2.6,9.8-8.4,9.8-14.8C42.1,10.2,34.9,3,26,3S9.9,10.2,9.9,19.1
			c0,7.3,4.9,13.7,11.9,15.6c0.5,0.1,0.8,0.7,0.7,1.2C22.4,36.4,21.9,36.7,21.5,36.7z"/>
	</g>
	<g>
		<path class="st0" d="M22.2,51c-0.1,0-0.1,0-0.2,0l-7.4-1.5c-0.4-0.1-0.6-0.3-0.8-0.7c-0.1-0.3,0-0.7,0.2-1
			c3.2-3.3,5.4-7.4,6.3-11.9l0-0.1c0-0.1,0-0.1,0-0.2c0.4-2.3,0.5-4.7,0.3-6.9c-0.1-0.5,0.3-1,0.9-1.1c0.5-0.1,1,0.3,1.1,0.9
			c0.2,2.4,0.1,5-0.3,7.4c0,0,0,0.2-0.1,0.3l0,0.1c-0.9,4.3-2.8,8.2-5.6,11.6l5.2,1.1c4.9-3.4,8.4-8.5,9.7-14.3
			c0.1-0.4,0.7-4.4,0.6-6.1c0-0.6,0.4-1,1-1c0.6,0,1,0.4,1,1c0,2-0.6,6.3-0.7,6.7c-1.5,6.4-5.4,11.9-10.9,15.6
			C22.6,50.9,22.4,51,22.2,51z"/>
	</g>
	<g>
		<path class="st0" d="M41.6,46.6c-3.1,0-9.5-0.6-11.8-5.8c-0.2-0.5,0-1.1,0.5-1.3c0.5-0.2,1.1,0,1.3,0.5c1.3,3,4.8,4.1,7.5,4.4
			c-4.5-3.2-6.4-7.8-7-9.4c-0.2-0.5,0.1-1.1,0.6-1.3c0.5-0.2,1.1,0.1,1.3,0.6c0.6,1.7,3.2,7.7,9.5,10.3c0.4,0.2,0.7,0.6,0.6,1.1
			c-0.1,0.5-0.4,0.8-0.9,0.9C43.1,46.6,42.5,46.6,41.6,46.6z"/>
	</g>
	<g>
		<path class="st0" d="M10.4,43.7c-1.3,0-2.2-0.1-2.3-0.1c-0.5-0.1-0.8-0.4-0.9-0.9s0.2-0.9,0.6-1.1c4.6-1.9,7.2-5.5,8.6-8.2
			c0.3-0.5,0.9-0.7,1.3-0.4c0.5,0.3,0.7,0.9,0.4,1.3c-1.2,2.3-3.1,5.1-6.2,7.3c2.9-0.2,6.6-1.1,8.1-4.2c0.1-0.4,0.5-0.7,0.9-0.7
			c0.6,0,1,0.4,1,1c0,0.1,0,0.2-0.1,0.3c0,0,0,0.1,0,0.1C19.8,43,13.8,43.7,10.4,43.7z"/>
	</g>
	<g>
		<g>
			<path class="st0" d="M32.6,20.5c-2.3,0-4.2-1.9-4.2-4.2s1.9-4.2,4.2-4.2s4.2,1.9,4.2,4.2S34.9,20.5,32.6,20.5z M32.6,14.2
				c-1.2,0-2.2,1-2.2,2.2s1,2.2,2.2,2.2s2.2-1,2.2-2.2S33.8,14.2,32.6,14.2z"/>
		</g>
		<g>
			<path class="st0" d="M19.4,20.5c-2.3,0-4.2-1.9-4.2-4.2s1.9-4.2,4.2-4.2s4.2,1.9,4.2,4.2S21.7,20.5,19.4,20.5z M19.4,14.2
				c-1.2,0-2.2,1-2.2,2.2s1,2.2,2.2,2.2s2.2-1,2.2-2.2S20.6,14.2,19.4,14.2z"/>
		</g>
	</g>
	<g>
		<g>
			<path class="st0" d="M43.4,30.1c-1.2,0-2.4-0.5-3.4-1.4c-0.4-0.4-0.4-1-0.1-1.4c0.4-0.4,1-0.4,1.4-0.1c0.7,0.6,1.4,0.9,2.1,0.9
				c2.7,0,5.1-4.4,5.1-9.6c0-5.2-2.3-9.6-5.1-9.6c-1.1,0-1.9,0.7-2.5,1.3c-0.4,0.4-1,0.4-1.4,0.1c-0.4-0.4-0.4-1-0.1-1.4
				c1.2-1.3,2.5-2,4-2c4,0,7.1,5.1,7.1,11.6C50.5,25,47.4,30.1,43.4,30.1z"/>
		</g>
		<g>
			<path class="st0" d="M8.6,30.1c-4,0-7.1-5.1-7.1-11.6C1.5,12,4.6,6.9,8.6,6.9c1.4,0,2.8,0.7,4,1.9c0.4,0.4,0.3,1-0.1,1.4
				s-1,0.4-1.4-0.1c-0.5-0.6-1.4-1.3-2.5-1.3c-2.7,0-5.1,4.4-5.1,9.6c0,5.2,2.3,9.6,5.1,9.6c0.7,0,1.4-0.3,2.1-0.9
				c0.4-0.4,1-0.3,1.4,0.1c0.4,0.4,0.3,1-0.1,1.4C11,29.7,9.8,30.1,8.6,30.1z"/>
		</g>
	</g>
</g>
</svg>
