<?xml version="1.0" encoding="utf-8"?>
<!-- Generator: Adobe Illustrator 24.1.0, SVG Export Plug-In . SVG Version: 6.00 Build 0)  -->
<svg version="1.1" id="Layer_1" xmlns="http://www.w3.org/2000/svg" xmlns:xlink="http://www.w3.org/1999/xlink" x="0px" y="0px"
	 viewBox="0 0 100 125" style="enable-background:new 0 0 100 125;" xml:space="preserve" fill="#E9856E">
<path d="M80,5c-4.1,0-7.9,1.7-10.6,4.4C63.5,6.6,56.9,5,50,5S36.5,6.6,30.6,9.4C27.9,6.7,24.1,5,20,5C11.7,5,5,11.7,5,20
	c0,4.1,1.7,7.9,4.4,10.6C6.6,36.5,5,43.1,5,50v22.5c0,1.3,1,2.4,2.3,2.5c15.5,1.2,30.1,8,40.9,19.2c0.5,0.5,1.1,0.8,1.8,0.8
	s1.3-0.3,1.8-0.8C62.6,83,77.2,76.2,92.7,75c1.3-0.1,2.3-1.2,2.3-2.5V50c0-6.9-1.6-13.5-4.4-19.4C93.3,27.9,95,24.1,95,20
	C95,11.7,88.3,5,80,5z M20,10c2.2,0,4.3,0.7,6,2c-5.6,3.6-10.4,8.3-14,14c-1.2-1.7-2-3.7-2-6C10,14.5,14.5,10,20,10z M90,70.2
	C75,71.9,60.9,78.5,50,89C39.1,78.5,25,71.9,10,70.2V50c0-22.1,17.9-40,40-40s40,17.9,40,40V70.2z M88,26c-3.6-5.6-8.3-10.4-14-14
	c1.7-1.2,3.7-2,6-2c5.5,0,10,4.5,10,10C90,22.2,89.3,24.3,88,26z"/>
<path d="M65,60c-1.4,0-2.5,1.1-2.5,2.5c0,2.8-2.2,5-5,5c-2.4,0-4.5-1.8-4.9-4.1l6.7-6.7c0.8-0.8,1-1.9,0.5-2.9l-2.5-5
	c-0.4-0.8-1.3-1.4-2.2-1.4H45c-0.9,0-1.8,0.5-2.2,1.4l-2.5,5c-0.5,1-0.3,2.1,0.5,2.9l6.7,6.7c-0.4,2.3-2.5,4.1-4.9,4.1
	c-2.8,0-5-2.2-5-5c0-1.4-1.1-2.5-2.5-2.5s-2.5,1.1-2.5,2.5c0,5.5,4.5,10,10,10c3,0,5.7-1.3,7.5-3.4c1.8,2.1,4.5,3.4,7.5,3.4
	c5.5,0,10-4.5,10-10C67.5,61.1,66.4,60,65,60z M50,59l-4.5-4.5l1-2h6.9l1,2L50,59z"/>
<path d="M45,35c0-5.5-4.5-10-10-10s-10,4.5-10,10s4.5,10,10,10S45,40.5,45,35z M30,35c0-2.8,2.2-5,5-5s5,2.2,5,5s-2.2,5-5,5
	S30,37.8,30,35z"/>
<path d="M65,25c-5.5,0-10,4.5-10,10s4.5,10,10,10s10-4.5,10-10S70.5,25,65,25z M65,40c-2.8,0-5-2.2-5-5s2.2-5,5-5c2.8,0,5,2.2,5,5
	S67.8,40,65,40z"/>
</svg>
