<?xml version="1.0" encoding="utf-8"?>
<!-- Generator: Adobe Illustrator 24.1.0, SVG Export Plug-In . SVG Version: 6.00 Build 0)  -->
<svg version="1.1" id="Layer_1" xmlns="http://www.w3.org/2000/svg" xmlns:xlink="http://www.w3.org/1999/xlink" x="0px" y="0px"
	 viewBox="0 0 112 99.2" style="enable-background:new 0 0 112 99.2;" xml:space="preserve" fill="#E9856E">
<path d="M112,38.2c0-0.6-0.2-1.1-0.5-1.6L94.2,10.7c-0.6-0.8-1.5-1.4-2.5-1.4H79.3H68.4h0c-1.7,0-3.1,1.4-3.1,3.1v49.9
	c0,1.7,1.4,3.1,3.1,3.1h6.3h0c0,7.7,6.3,14,14,14c7.7,0,14-6.3,14-14h6.3c1.7,0,3.1-1.4,3.1-3.1L112,38.2
	C112,38.2,112,38.2,112,38.2z M79.3,37.3V18.7h11.8l12.4,18.7H79.3z M88.7,72.3c-3.9,0-7-3.1-7-7s3.1-7,7-7c3.9,0,7,3.1,7,7
	S92.5,72.3,88.7,72.3z M56.6,0H4.1C1.8,0,0,1.8,0,4.1v57.2c0,2.2,1.8,4.1,4.1,4.1H14c0,7.7,6.3,14,14,14s14-6.3,14-14h14.6
	c2.2,0,4.1-1.8,4.1-4.1V4.1C60.7,1.8,58.8,0,56.6,0z M28,72.3c-3.9,0-7-3.1-7-7s3.1-7,7-7c3.9,0,7,3.1,7,7S31.9,72.3,28,72.3z"/>
</svg>
